<?xml version="1.0" encoding="UTF-8"?>
<!-- Generator: Adobe Illustrator 17.0.2, SVG Export Plug-In . SVG Version: 6.00 Build 0)  -->
<!DOCTYPE svg PUBLIC "-//W3C//DTD SVG 1.1//EN" "http://www.w3.org/Graphics/SVG/1.1/DTD/svg11.dtd">
<svg version="1.1" id="Layer_1" xmlns="http://www.w3.org/2000/svg" xmlns:xlink="http://www.w3.org/1999/xlink" x="0px" y="0px" width="215.097px" height="216.92px" viewBox="0 0 215.097 216.92" enable-background="new 0 0 215.097 216.92" xml:space="preserve">
<g>
	<g>
		<path fill="#2D2D2D" d="M200.43,178.769c-0.61-0.1-1.26-0.19-1.87-0.12c-2.51,0.26-4.97-0.05-7.45-0.47    c-4.61-0.77-7.8-3.39-10.24-7.2c-1.5-2.33-1.77-4.75-1.01-7.41c0.45-1.59,0.79-3.27,0.89-4.93c0.46-8.35-3.94-15.72-11.53-19.22    c-5.44-2.52-10.97-2.46-16.5-0.16c-1.38,0.58-2.84,0.95-4.27,0.78c-0.92-0.95-1.82-1.92-2.76-2.86    c-10.27-10.18-1.06-2.52-11.29-12.75c-1.48-1.49-2.96-2.98-4.43-4.48c-4.13-4.19-8.21-8.42-12.29-12.65    c-0.42-0.43-0.84-0.87-1.26-1.3c-0.45-0.46-0.9-0.94-1.31-1.45l-7.59-7.87l-4.26-4.42c-0.13,0.23-0.24,0.48-0.44,0.6    c-2.08,1.32-4.17,2.61-6.29,3.87c-0.27,0.16-0.66,0.13-1,0.18c-0.05-0.15-0.11-0.3-0.16-0.45c2.49-1.55,4.97-3.09,7.46-4.64    l-0.94-0.98c-2.29,1.46-4.61,2.87-6.95,4.25c-0.25,0.14-0.69-0.02-1.05-0.04c0-0.11,0.01-0.22,0.01-0.33    c2.46-1.51,4.91-3.02,7.36-4.53l-0.93-0.97c-2.25,1.42-4.51,2.8-6.8,4.15c-0.26,0.16-0.72-0.01-1.08-0.03    c0.01-0.12,0.02-0.24,0.04-0.37c2.4-1.47,4.79-2.95,7.19-4.42l-0.94-0.97c-2.24,1.41-4.5,2.79-6.77,4.14    c-0.23,0.14-0.66-0.07-0.99-0.13c0.01-0.1,0.02-0.2,0.03-0.3c2.36-1.46,4.73-2.92,7.09-4.37l-0.92-0.96    c-2.2,1.38-4.42,2.73-6.65,4.07c-0.23,0.13-0.66-0.07-0.99-0.12v-0.34c2.33-1.43,4.66-2.86,6.99-4.29l-0.91-0.94    c-2.11,1.31-4.24,2.61-6.37,3.89c-0.26,0.15-0.7,0.02-1.06,0.03c-0.02-0.14-0.04-0.28-0.07-0.42c2.28-1.4,4.55-2.8,6.83-4.2    l-0.89-0.91c-2.07,1.29-4.16,2.56-6.26,3.82c-0.25,0.15-0.73-0.08-1.1-0.13c0.02-0.11,0.03-0.22,0.04-0.33    c2.22-1.36,4.43-2.72,6.64-4.07l-0.89-0.93c-2.01,1.25-4.03,2.48-6.05,3.69c-0.28,0.17-0.75,0.03-1.13,0.03    c0.01-0.15,0.01-0.3,0.02-0.46c2.15-1.32,4.32-2.64,6.48-3.97l-0.89-0.92c-1.96,1.2-3.91,2.39-5.86,3.6    c-0.59,0.36-0.99,0.41-1.23-0.37c2.14-1.31,4.27-2.62,6.41-3.93l-0.87-0.9c-1.38,0.85-2.76,1.7-4.14,2.55    c-0.56,0.35-1.12,0.74-1.72,1c-0.32,0.14-0.74,0.02-1.11,0.02c-0.03-0.13-0.04-0.27-0.06-0.4c2.11-1.3,4.22-2.59,6.33-3.89    l-0.89-0.93c-1.91,1.17-3.83,2.33-5.76,3.49c-0.26,0.16-0.75-0.04-1.13-0.08v-0.38c2.07-1.23,4.15-2.45,6.25-3.69    c0.04-0.02,0.08-0.04,0.12-0.07c-0.26-0.54-0.51-0.81-0.9-0.75c-0.15,0.03-0.32,0.1-0.51,0.21c-1.66,1.03-3.37,2-5.07,2.98    c-0.79,0.46-0.8,0.44-1.2-0.46c1.98-1.17,3.98-2.35,5.99-3.54c0.05-0.03,0.09-0.05,0.14-0.08c-0.28-0.53-0.55-0.77-0.92-0.73    c-0.16,0.02-0.34,0.09-0.54,0.21c-1.64,1.01-3.32,1.94-4.97,2.93c-0.58,0.35-0.99,0.38-1.19-0.47c1.98-1.17,3.95-2.34,5.91-3.49    c0.03-0.02,0.07-0.04,0.1-0.06c-0.25-0.61-0.54-0.8-0.89-0.75c-0.19,0.03-0.4,0.12-0.64,0.27c-1.57,0.96-3.16,1.88-4.75,2.81    c-0.57,0.34-1.01,0.37-1.15-0.5c1.91-1.13,3.81-2.25,5.76-3.4c0.04-0.03,0.09-0.05,0.13-0.08c-0.27-0.51-0.52-0.79-0.92-0.73    c-0.14,0.02-0.3,0.09-0.49,0.2c-1.57,0.97-3.19,1.85-4.77,2.79c-0.61,0.36-0.99,0.33-1.15-0.49c1.88-1.11,3.74-2.21,5.62-3.32    c0.05-0.03,0.1-0.06,0.15-0.09c-0.29-0.52-0.56-0.77-0.93-0.73c-0.16,0.02-0.33,0.09-0.53,0.22c-1.5,0.93-3.04,1.78-4.56,2.69    c-0.57,0.35-1,0.45-1.23-0.45c1.83-1.08,3.66-2.16,5.54-3.26c0.03-0.03,0.07-0.05,0.11-0.07c-0.25-0.54-0.51-0.81-0.9-0.75    c-0.15,0.02-0.31,0.09-0.5,0.2c-1.47,0.91-2.99,1.72-4.46,2.62c-0.61,0.38-0.99,0.37-1.25-0.42c1.8-1.08,3.6-2.14,5.42-3.22    c0.03-0.02,0.07-0.04,0.1-0.06c-0.24-0.59-0.51-0.81-0.88-0.75c-0.17,0.03-0.37,0.12-0.59,0.26c-1.39,0.87-2.85,1.65-4.26,2.49    c-0.61,0.37-1.01,0.32-1.16-0.49c1.74-1.03,3.48-2.05,5.22-3.08c0.04-0.02,0.08-0.05,0.13-0.07c-0.48-0.62-0.64-0.83-0.93-0.76    c-0.15,0.03-0.33,0.14-0.6,0.3c-1.43,0.82-2.83,1.67-4.28,2.46c-0.2,0.11-0.58-0.08-0.88-0.13c0.13-0.24,0.21-0.53,0.39-0.7    c0.22-0.22,0.53-0.33,0.81-0.49c1.25-0.74,2.51-1.49,3.78-2.24c0.04-0.03,0.09-0.05,0.13-0.08c-0.47-0.58-0.63-0.79-0.91-0.73    c-0.13,0.03-0.3,0.12-0.55,0.26c-1.36,0.77-2.71,1.56-4.05,2.37c-0.64,0.38-1,0.28-1.15-0.51c1.67-0.99,3.31-1.98,4.95-2.95    c0.04-0.02,0.08-0.05,0.13-0.08c-0.26-0.56-0.54-0.78-0.9-0.72c-0.17,0.02-0.35,0.1-0.56,0.23c-1.29,0.81-2.61,1.58-3.96,2.29    c-0.27,0.15-0.72-0.03-1.08-0.05c0-0.15-0.01-0.29-0.01-0.44c1.6-0.95,3.21-1.9,4.82-2.85c0.03-0.02,0.07-0.04,0.1-0.06    c-0.22-0.56-0.49-0.82-0.88-0.75c-0.15,0.02-0.31,0.09-0.5,0.21c-1.22,0.76-2.49,1.47-3.73,2.22c-0.6,0.37-1.07,0.48-1.3-0.44    c1.59-0.94,3.16-1.88,4.73-2.81c0.04-0.02,0.07-0.04,0.1-0.06c-0.43-0.64-0.56-0.84-0.87-0.75c-0.14,0.04-0.32,0.14-0.57,0.29    c-1.19,0.68-2.38,1.36-3.56,2.06c-0.57,0.34-1.02,0.4-1.23-0.46c1.52-0.9,3.05-1.8,4.57-2.7c0.04-0.03,0.08-0.05,0.11-0.07    c-0.25-0.57-0.53-0.8-0.9-0.75c-0.16,0.02-0.34,0.1-0.53,0.22c-1.17,0.73-2.36,1.4-3.55,2.08c-0.69,0.39-0.71,0.37-1.07-0.53    c1.45-0.86,2.91-1.73,4.36-2.59c0.03-0.03,0.07-0.05,0.11-0.07c-0.26-0.58-0.54-0.78-0.88-0.73c-0.17,0.02-0.36,0.11-0.57,0.24    c-1.09,0.69-2.23,1.31-3.34,1.97c-0.57,0.34-1,0.37-1.17-0.5c1.44-0.85,2.87-1.7,4.28-2.53c0.04-0.03,0.08-0.05,0.12-0.07    c-0.25-0.59-0.54-0.8-0.9-0.75c-0.18,0.03-0.4,0.13-0.63,0.27c-1.05,0.68-2.14,1.32-3.26,1.88c-0.26,0.13-0.71-0.09-1.07-0.15    c0.02-0.13,0.04-0.25,0.05-0.37c1.37-0.81,2.74-1.62,4.12-2.44c0.04-0.03,0.08-0.05,0.12-0.07c-0.25-0.53-0.51-0.82-0.91-0.75    c-0.14,0.02-0.3,0.09-0.48,0.21c-1.03,0.65-2.07,1.27-3.15,1.82c-0.31,0.16-0.77,0.02-1.15,0.02c-0.02-0.15-0.04-0.29-0.06-0.43    c1.35-0.81,2.7-1.63,4.05-2.45c0.04-0.02,0.08-0.04,0.11-0.07c-0.46-0.61-0.61-0.8-0.89-0.73c-0.13,0.03-0.29,0.12-0.52,0.25    c-1.02,0.57-2.02,1.21-3.07,1.73c-0.29,0.14-0.75-0.04-1.13-0.07v-0.38c1.32-0.79,2.64-1.57,3.94-2.34    c0.04-0.02,0.08-0.05,0.13-0.08c-0.27-0.58-0.56-0.78-0.91-0.73c-0.19,0.02-0.4,0.12-0.64,0.27c-0.88,0.58-1.83,1.07-2.73,1.62    c-0.61,0.37-0.99,0.28-1.15-0.5c1.26-0.75,2.49-1.48,3.72-2.22c0.04-0.02,0.08-0.04,0.11-0.06c-0.47-0.65-0.61-0.85-0.91-0.76    c-0.12,0.03-0.27,0.11-0.49,0.23c-0.95,0.54-1.87,1.15-2.86,1.63c-0.26,0.13-0.7-0.08-1.06-0.13c0.02-0.13,0.04-0.26,0.05-0.39    c1.19-0.71,2.39-1.43,3.59-2.15c0.04-0.02,0.08-0.04,0.11-0.07c-0.24-0.57-0.52-0.81-0.9-0.74c-0.17,0.02-0.36,0.11-0.57,0.26    c-0.82,0.54-1.66,1.05-2.54,1.47c-0.3,0.15-0.74-0.01-1.12-0.02c-0.02-0.15-0.03-0.3-0.05-0.44c1.17-0.69,2.34-1.38,3.51-2.08    c0.03-0.01,0.06-0.03,0.09-0.05c-0.21-0.6-0.5-0.83-0.88-0.77c-0.17,0.03-0.37,0.11-0.58,0.25c-0.79,0.5-1.6,1-2.44,1.4    c-0.29,0.13-0.72-0.04-1.08-0.08c0-0.13,0.01-0.27,0.01-0.4c1.07-0.65,2.15-1.3,3.29-2l0.16-0.09l-0.8-0.83    c-0.05,0.03-0.11,0.06-0.17,0.09c-0.96,0.55-1.89,1.08-2.8,1.63c-0.63,0.38-0.99,0.27-1.18-0.5c1.09-0.65,2.15-1.28,3.22-1.92    c0.07-0.04,0.14-0.08,0.2-0.12c-1.25-1.39-1.51-1.95-2.09-1.84c-0.38,0.07-0.9,0.44-1.95,1.07c-0.63,0.38-1.21,0.88-1.72,1.41    c-1.11,1.15-1.2,2-0.42,3.38c0.38,0.69,0.79,1.36,1.28,1.98c4.08,5.16,8.16,10.33,12.29,15.46c6.76,8.39,13.57,16.75,20.32,25.15    c5.62,6.99,11.21,14.01,16.78,21.04c0.27,0.34,0.54,0.68,0.82,1.02c1.09,1.38,2.43,2.7,3.05,4.28c0.8,2.04,1.57,4.09,2.32,6.15    c1.28,0.97,2.62,1.84,4,2.64c4.031,2.371,8.38,4.289,12.469,6.918c0.391,0.134,0.742,0.316,1.06,0.533    c0.23,0.108,0.448,0.228,0.649,0.368c0.817,0.297,1.539,0.581,2.282,0.921c3.64,1.65,3.72,1.8,7,4.03    c0.76,0.52,1.17,0.77,1.36,0.86c0.01,0.01,0.01,0.01,0.02,0.01c0.7,0.61,1.89,1.63,3.85,3.28c1.98,1.66,3.96,3.34,5.75,5.19    c1.54,1.6,1.9,3.38,0.8,5.66c-2.95,6.16-2.59,12.36,0.58,18.39c0.35,0.65,0.49,1.08,0,1.75c-0.72,0.99-0.54,2.28,0.24,3.15    c0.75,0.83,1.98,1.16,3.01,0.6c0.7-0.37,1.09-0.19,1.63,0.26c3.15,2.68,6.88,4.05,10.94,4.41c3.99,0.35,7.93-0.37,11.68-1.63    c3.16-1.06,5.78-0.67,8.29,1.46c4.27,3.63,9.04,6.18,14.72,6.74c2.31,0.23,4.6,0.44,6.88-0.17c1.22-0.32,2.22-1.65,2.13-2.77    C202.67,179.799,201.95,179.009,200.43,178.769z M99.42,97.569c-0.17,0.09-0.47-0.04-0.71-0.08c0.1-0.24,0.13-0.6,0.31-0.72    c1-0.67,2.03-1.28,3.05-1.91c0.14,0.05,0.28,0.12,0.42,0.18c-0.12,0.31-0.15,0.75-0.38,0.9    C101.25,96.539,100.34,97.069,99.42,97.569z M106.42,102.149c1.75-0.32,3.54,0.47,4.61,1.62c0.58,0.63,0.95,1.37,0.99,2.1    c-1.78,0.24-3.56,0.49-5.34,0.74c-1.44,0.2-2.89,0.4-4.34,0.6C102.02,104.909,103.95,102.609,106.42,102.149z M112.26,107.439    c0,0.45-0.07,0.89-0.18,1.31c-0.53,1.85-2.14,3.2-4.27,3.51c-1.41,0.21-3.04-0.4-4.13-1.49c-0.62-0.61-1.07-1.38-1.21-2.24    c0.04-0.01,0.07-0.01,0.1-0.02c1.37-0.19,2.74-0.38,4.11-0.57c1.55-0.21,3.11-0.42,4.67-0.64c0.3-0.04,0.61-0.08,0.91-0.13    V107.439z M171.21,168.499c-6,5.77-15.48,5.61-21.26-0.38c-5.8-6.01-5.64-15.6,0.38-21.37c5.99-5.75,15.59-5.56,21.34,0.43    C177.48,153.219,177.27,162.649,171.21,168.499z"/>
		<path fill="#2D2D2D" d="M168.44,41.029c-0.51-0.54-1.08-1.05-1.71-1.43c-1.04-0.64-1.56-1.01-1.94-1.09    c-0.58-0.12-0.84,0.45-2.11,1.82c0.07,0.04,0.13,0.08,0.2,0.12c1.07,0.65,2.12,1.3,3.2,1.96c-0.2,0.76-0.56,0.87-1.18,0.48    c-0.91-0.56-1.84-1.09-2.79-1.66c-0.06-0.03-0.11-0.06-0.17-0.09l-0.8,0.82l0.16,0.1c1.13,0.7,2.2,1.37,3.26,2.03    c0.01,0.13,0.01,0.26,0.01,0.4c-0.36,0.03-0.79,0.2-1.08,0.06c-0.84-0.4-1.64-0.9-2.43-1.42c-0.21-0.14-0.4-0.22-0.57-0.25    c-0.38-0.07-0.67,0.16-0.9,0.76c0.04,0.01,0.07,0.03,0.1,0.05c1.16,0.71,2.32,1.41,3.49,2.11c-0.02,0.15-0.04,0.29-0.05,0.44    c-0.38,0.01-0.82,0.16-1.13,0.01c-0.87-0.43-1.71-0.94-2.52-1.5c-0.21-0.14-0.4-0.23-0.57-0.26c-0.38-0.07-0.67,0.16-0.91,0.74    c0.04,0.02,0.07,0.04,0.11,0.06c1.2,0.74,2.38,1.46,3.57,2.19c0.01,0.13,0.03,0.26,0.04,0.39c-0.36,0.05-0.79,0.25-1.06,0.12    c-0.98-0.49-1.89-1.11-2.84-1.66c-0.21-0.12-0.37-0.21-0.49-0.24c-0.3-0.08-0.44,0.11-0.92,0.75c0.04,0.03,0.08,0.05,0.11,0.07    c1.23,0.75,2.45,1.49,3.7,2.25c-0.17,0.78-0.54,0.87-1.15,0.49c-0.9-0.56-1.84-1.06-2.72-1.64c-0.23-0.16-0.44-0.26-0.63-0.28    c-0.35-0.05-0.65,0.14-0.92,0.72c0.04,0.03,0.08,0.06,0.13,0.08c1.3,0.79,2.61,1.58,3.91,2.38v0.38c-0.38,0.03-0.84,0.2-1.13,0.05    c-1.05-0.52-2.04-1.17-3.05-1.76c-0.23-0.13-0.39-0.22-0.52-0.25c-0.28-0.07-0.43,0.12-0.9,0.73c0.04,0.02,0.07,0.04,0.11,0.07    c1.35,0.83,2.69,1.66,4.03,2.48c-0.03,0.15-0.04,0.29-0.06,0.43c-0.39,0-0.85,0.13-1.15-0.03c-1.08-0.56-2.12-1.19-3.14-1.85    c-0.18-0.12-0.34-0.19-0.48-0.21c-0.4-0.08-0.66,0.21-0.92,0.73c0.04,0.03,0.08,0.05,0.12,0.08c1.38,0.83,2.74,1.66,4.09,2.48    c0.02,0.12,0.04,0.25,0.06,0.37c-0.37,0.05-0.82,0.27-1.08,0.14c-1.11-0.58-2.19-1.23-3.24-1.91c-0.23-0.15-0.44-0.25-0.63-0.28    c-0.35-0.05-0.64,0.15-0.9,0.74c0.04,0.02,0.08,0.04,0.11,0.07c1.41,0.85,2.83,1.71,4.26,2.58c-0.18,0.87-0.61,0.83-1.17,0.48    c-1.11-0.67-2.24-1.3-3.32-2c-0.21-0.14-0.39-0.22-0.57-0.25c-0.34-0.05-0.62,0.15-0.88,0.73c0.03,0.02,0.07,0.04,0.1,0.06    c1.44,0.88,2.89,1.76,4.33,2.64c-0.37,0.9-0.38,0.92-1.07,0.52c-1.18-0.69-2.37-1.38-3.53-2.12c-0.19-0.12-0.37-0.2-0.53-0.22    c-0.37-0.06-0.65,0.17-0.91,0.74c0.04,0.02,0.08,0.04,0.12,0.07c1.51,0.91,3.03,1.83,4.54,2.75c-0.22,0.86-0.67,0.79-1.24,0.44    c-1.17-0.71-2.35-1.4-3.53-2.1c-0.26-0.15-0.43-0.25-0.57-0.29c-0.31-0.09-0.44,0.11-0.88,0.74c0.03,0.02,0.06,0.04,0.1,0.06    c1.56,0.95,3.12,1.9,4.7,2.87c-0.24,0.91-0.7,0.79-1.3,0.42c-1.23-0.77-2.49-1.48-3.72-2.26c-0.18-0.12-0.34-0.19-0.48-0.22    c-0.4-0.07-0.67,0.19-0.9,0.75c0.04,0.02,0.07,0.04,0.1,0.06c1.61,0.97,3.2,1.93,4.8,2.9c-0.01,0.14-0.01,0.29-0.02,0.43    c-0.37,0.02-0.81,0.19-1.09,0.05c-1.34-0.73-2.65-1.52-3.93-2.34c-0.2-0.13-0.39-0.21-0.55-0.23c-0.36-0.06-0.65,0.15-0.91,0.71    c0.04,0.03,0.09,0.06,0.13,0.08c1.62,0.99,3.26,1.99,4.92,3.01c-0.16,0.78-0.52,0.88-1.15,0.49c-1.34-0.82-2.68-1.62-4.04-2.41    c-0.24-0.14-0.41-0.24-0.55-0.26c-0.27-0.07-0.44,0.13-0.91,0.72c0.04,0.02,0.09,0.05,0.13,0.08c1.26,0.76,2.51,1.52,3.76,2.27    c0.27,0.17,0.58,0.28,0.8,0.5c0.18,0.18,0.26,0.47,0.38,0.71c-0.3,0.05-0.67,0.23-0.88,0.12c-1.44-0.8-2.84-1.67-4.25-2.51    c-0.27-0.16-0.45-0.27-0.59-0.3c-0.3-0.08-0.46,0.13-0.94,0.75c0.04,0.02,0.08,0.05,0.12,0.07c1.74,1.05,3.46,2.09,5.19,3.13    c-0.16,0.82-0.56,0.85-1.16,0.48c-1.41-0.85-2.86-1.65-4.24-2.54c-0.22-0.14-0.41-0.23-0.58-0.26c-0.38-0.06-0.65,0.16-0.89,0.74    c0.03,0.02,0.07,0.04,0.1,0.06c1.8,1.1,3.6,2.19,5.39,3.27c-0.28,0.79-0.66,0.8-1.26,0.42c-1.46-0.92-2.98-1.75-4.43-2.67    c-0.19-0.11-0.35-0.18-0.5-0.21c-0.39-0.06-0.65,0.21-0.91,0.74c0.04,0.03,0.08,0.05,0.11,0.07c1.86,1.12,3.69,2.22,5.51,3.32    c-0.24,0.9-0.67,0.8-1.24,0.44c-1.5-0.92-3.04-1.79-4.53-2.74c-0.2-0.12-0.37-0.2-0.52-0.22c-0.38-0.05-0.65,0.21-0.95,0.72    c0.05,0.03,0.1,0.06,0.15,0.09c1.87,1.13,3.72,2.25,5.59,3.38c-0.16,0.82-0.55,0.84-1.16,0.48c-1.57-0.96-3.18-1.85-4.74-2.84    c-0.18-0.12-0.34-0.19-0.49-0.21c-0.4-0.07-0.65,0.22-0.93,0.72c0.05,0.03,0.1,0.06,0.14,0.09c1.93,1.16,3.83,2.3,5.73,3.45    c-0.15,0.87-0.6,0.84-1.17,0.49c-1.57-0.95-3.16-1.88-4.72-2.86c-0.23-0.14-0.44-0.25-0.64-0.27c-0.34-0.06-0.64,0.13-0.89,0.74    c0.03,0.02,0.07,0.04,0.1,0.06c1.95,1.17,3.91,2.36,5.87,3.55c-0.2,0.85-0.61,0.81-1.19,0.45c-1.64-1-3.31-1.94-4.94-2.97    c-0.2-0.13-0.38-0.2-0.53-0.22c-0.37-0.05-0.65,0.19-0.94,0.72c0.05,0.03,0.1,0.06,0.14,0.08c2.01,1.21,3.99,2.41,5.96,3.6    c-0.42,0.9-0.42,0.91-1.21,0.45c-1.69-1-3.39-1.98-5.04-3.03c-0.19-0.12-0.35-0.19-0.5-0.21c-0.39-0.07-0.65,0.2-0.91,0.74    c0.04,0.02,0.08,0.04,0.12,0.07c2.09,1.26,4.15,2.5,6.21,3.75v0.38c-0.39,0.03-0.87,0.23-1.14,0.07    c-1.91-1.18-3.82-2.36-5.72-3.55l-0.9,0.92c2.09,1.32,4.19,2.63,6.29,3.95c-0.02,0.14-0.04,0.27-0.06,0.41    c-0.37,0-0.8,0.1-1.11-0.04c-0.6-0.26-1.15-0.66-1.71-1.01c-1.37-0.87-2.74-1.73-4.11-2.6l-0.88,0.89c2.12,1.33,4.24,2.66,6.37,4    c-0.25,0.77-0.66,0.73-1.24,0.36c-1.94-1.23-3.87-2.44-5.82-3.66l-0.9,0.91c2.15,1.35,4.29,2.69,6.44,4.04    c0,0.15,0.01,0.3,0.01,0.46c-0.38-0.01-0.85,0.13-1.13-0.04c-2.01-1.24-4.01-2.49-6.01-3.75l-0.9,0.91c2.2,1.37,4.4,2.76,6.6,4.14    c0.01,0.11,0.02,0.22,0.04,0.33c-0.38,0.05-0.85,0.27-1.1,0.12c-2.09-1.28-4.17-2.58-6.23-3.89l-0.89,0.91    c2.26,1.42,4.52,2.85,6.78,4.27c-0.03,0.14-0.05,0.27-0.08,0.41c-0.35-0.01-0.79,0.12-1.05-0.04c-2.12-1.3-4.23-2.62-6.33-3.95    l-0.92,0.93c2.32,1.45,4.63,2.91,6.94,4.36v0.34c-0.33,0.05-0.76,0.25-0.99,0.11c-2.21-1.36-4.42-2.74-6.61-4.14l-0.93,0.95    c2.35,1.48,4.7,2.97,7.05,4.45c0,0.1,0.01,0.2,0.02,0.3c-0.33,0.05-0.76,0.25-0.98,0.12c-2.26-1.38-4.51-2.78-6.74-4.21    l-0.94,0.96l7.14,4.49c0.02,0.13,0.03,0.25,0.04,0.37c-0.37,0.02-0.82,0.18-1.09,0.02c-2.27-1.37-4.52-2.78-6.75-4.22l-0.94,0.96    c2.43,1.53,4.87,3.07,7.31,4.61c0,0.11,0,0.22,0.01,0.33c-0.36,0.01-0.8,0.17-1.06,0.02c-2.32-1.4-4.62-2.83-6.9-4.31l-0.95,0.96    c2.47,1.57,4.94,3.15,7.41,4.72c-0.05,0.15-0.11,0.3-0.16,0.45c-0.34-0.06-0.73-0.02-1-0.19c-2.1-1.29-4.19-2.59-6.25-3.93    c-0.19-0.13-0.31-0.37-0.43-0.61l-4.12,4.18l-7.86,7.99c-0.42,0.5-0.87,0.98-1.32,1.43c-0.36,0.38-0.73,0.75-1.1,1.12    c-4.19,4.24-8.37,8.49-12.59,12.7c-1.49,1.48-2.98,2.96-4.49,4.43c-10.32,10.13-0.67,2.05-11.04,12.14    c-0.26,0.25-0.35,0.36-0.35,0.38c-0.61,0.45-1.24,0.84-1.9,1.15c-1.07,0.51-2.17,0.63-3.26,0.49c-0.94-0.11-1.88-0.41-2.78-0.8    c-5.51-2.36-11.03-2.48-16.5-0.02c-7.62,3.43-12.1,10.75-11.72,19.11c0.08,1.66,0.4,3.34,0.84,4.94c0.22,0.83,0.59,1.63,0.61,2.41    c2.09,4.87,5.78,8.77,10.67,10.84c2.46,0.69,4.99,1.1,7.55,1.1c0.6,0,1.21-0.02,1.82-0.07c4.06-0.32,7.8-1.65,10.98-4.3    c0.47-0.39,0.37-1.05,0.93-0.82c1.27-1.14,2.4-2.44,3.36-3.86c-0.29-0.54,0.33-0.47,0.64-1.03c3.24-6,3.66-12.19,0.77-18.38    c-0.44-0.95-0.64-1.8-0.6-2.6c0.04-1.13,0.55-2.12,1.46-3.05c0.313-0.318,0.526-0.51,0.683-0.629    c0.108-0.104,0.222-0.202,0.341-0.295l-0.025,0.014c0.009-0.006,0.029-0.02,0.041-0.028c0.138-0.107,0.283-0.208,0.437-0.299    c3.224-2.2,20.285-13.706,27.422-15.983c2.33-1.15,4.64-2.19,6.89-3.45c1.28-0.7,2.53-1.49,3.76-2.41    c0.78-2.04,1.57-4.08,2.39-6.12c0.63-1.57,1.99-2.88,3.1-4.25c0.33-0.41,0.66-0.82,1-1.23c5.59-6.9,11.18-13.79,16.82-20.65    c6.83-8.33,13.73-16.61,20.57-24.94c4.18-5.09,8.32-10.21,12.46-15.33c0.48-0.61,0.9-1.28,1.29-1.96    C169.61,43.039,169.53,42.189,168.44,41.029z M63.31,166.589c-5.85,5.93-15.32,6-21.26,0.16c-6.01-5.91-6.11-15.34-0.25-21.32    c5.82-5.93,15.42-6.02,21.35-0.21C69.1,151.049,69.17,160.639,63.31,166.589z M112.4,107.459c-0.04-0.01-0.09-0.02-0.14-0.02    c0,0.45-0.07,0.89-0.18,1.31c0.06,0,0.12,0.01,0.18,0.02c-0.41,2.39-3.17,4.03-5.38,3.69c-1.31-0.21-2.43-0.81-3.2-1.69    c-0.57-0.63-0.95-1.4-1.11-2.26c-0.08-0.38-0.1-0.78-0.08-1.19c1.4,0.21,2.79,0.42,4.19,0.62c1.55-0.21,3.11-0.42,4.67-0.64    c-1.56-0.23-3.11-0.46-4.67-0.69c-1.44,0.2-2.89,0.4-4.34,0.6c-0.32-2.3,1.61-4.6,4.08-5.06c1.75-0.32,3.54,0.47,4.61,1.62    C112.03,104.759,112.61,106.109,112.4,107.459z M115.42,97.849c-0.91-0.51-1.82-1.05-2.67-1.66c-0.23-0.16-0.25-0.6-0.37-0.91    c0.14-0.05,0.28-0.11,0.42-0.17c1.01,0.64,2.04,1.26,3.03,1.94c0.18,0.13,0.2,0.48,0.3,0.73    C115.89,97.809,115.59,97.949,115.42,97.849z"/>
		<path fill="#2D2D2D" d="M70.7,135.329c-0.47,0.42-0.96,0.83-1.47,1.2c0.56-0.46,1.46-1.23,1.75-1.46    C70.92,135.129,70.83,135.209,70.7,135.329z"/>
		<path fill="#2D2D2D" d="M107.985,213.295c-57.281,0-103.882-46.602-103.882-103.883S50.704,5.53,107.985,5.53    s103.882,46.601,103.882,103.882c0,24.036-8.399,47.472-23.65,65.992l-2.381-1.959c14.799-17.97,22.948-40.711,22.948-64.033    c0-55.58-45.218-100.798-100.798-100.798S7.187,53.832,7.187,109.412s45.218,100.799,100.798,100.799    c27.112,0,52.55-10.611,71.629-29.878l2.19,2.17C162.143,202.359,135.927,213.295,107.985,213.295z"/>
	</g>
</g>
</svg>